<svg width="141" height="141" viewBox="0 0 141 141" fill="none" xmlns="http://www.w3.org/2000/svg">
<circle cx="70.5" cy="70.5" r="70.5" fill="#B1B4B6"/>
<mask id="mask0" mask-type="alpha" maskUnits="userSpaceOnUse" x="0" y="0" width="141" height="141">
<circle cx="70.5" cy="70.5" r="70.5" fill="#4C2C92"/>
</mask>
<g mask="url(#mask0)">
<path d="M0 99H12.7273V61.2H0V99ZM70 64.35C70 60.885 67.1364 58.05 63.6364 58.05H43.5591L46.5818 43.6545L46.6773 42.6465C46.6773 41.355 46.1364 40.158 45.2773 39.3075L41.9045 36L20.9682 56.7585C19.7909 57.8925 19.0909 59.4675 19.0909 61.2V92.7C19.0909 96.165 21.9545 99 25.4545 99H54.0909C56.7318 99 58.9909 97.425 59.9454 95.157L69.5545 72.9495C69.8409 72.225 70 71.469 70 70.65V64.35Z" fill="white"/>
</g>
</svg>
